<svg id="Layer_1" data-name="Layer 1" xmlns="http://www.w3.org/2000/svg" viewBox="0 0 3852.18 900"><defs><style>.cls-1{fill:#231f20;}</style></defs><title>Artboard 1</title><path d="M796.83,415.87H603.64l42.67-44.72a34.16,34.16,0,1,0-49.5-47.1l-97.62,102.4a33.08,33.08,0,0,0-3.07,4.44,24.28,24.28,0,0,0-3.76,6.48,30.12,30.12,0,0,0-2.05,9.56l-.68,3.07a35.43,35.43,0,0,0,9.9,23.89l102.4,102.4a34.27,34.27,0,1,0,48.47-48.47L606,484.13h190.8a34.13,34.13,0,1,0,0-68.26Zm0,0"/><path d="M660.3,108.67C471.79,108.67,319,261.49,319,450S471.79,791.33,660.3,791.33,1001.63,638.51,1001.63,450,848.81,108.67,660.3,108.67Zm0,614.4c-150.81,0-273.07-122.26-273.07-273.07S509.49,176.93,660.3,176.93,933.36,299.19,933.36,450A273.05,273.05,0,0,1,660.3,723.07Zm0,0"/><path class="cls-1" d="M1615.21,705.58h-58q.35-21.09.87-77.87t.53-141.5q-5.27,0-62.58-.18t-86.13-.18q-34.8,0-83.5.18l-52.91.18q0,97.74.53,148t.88,71.37h-58q.34-21.09,1.06-74.88t.7-181.76q0-38.67-.53-94.22t-1.23-119.88h58q0,53.45-.7,104.94t-.71,97.91q4.23,0,45.88.18t90.88.17q38,0,91.41-.17l56.95-.18q0-46.41-.7-97.73t-.7-105.12h58q-.7,53.09-1.23,122.69t-.52,113.56q0,103.35.7,158.38T1615.21,705.58Z"/><path class="cls-1" d="M2195.64,470.38q0,57-19.5,104.59t-50.76,78.58q-34.77,34.46-73.77,50.1T1968,719.29a226,226,0,0,1-82.21-14.94,209.24,209.24,0,0,1-69.55-44.47q-34.08-32-55-80.69t-20.9-109.51q0-54.14,16.51-98.61a238.17,238.17,0,0,1,49.53-80,211.48,211.48,0,0,1,72.72-51.15A222.86,222.86,0,0,1,1968,221.83q47.41,0,87.82,17a211.45,211.45,0,0,1,69.91,47.29A233.13,233.13,0,0,1,2177.9,369Q2195.65,416.6,2195.64,470.38ZM2135.88,476a272.34,272.34,0,0,0-15.31-89.82q-15.32-44.12-46.63-74a156.74,156.74,0,0,0-47.34-31.64q-26.22-11.25-58.59-11.25a151,151,0,0,0-59,11.43,153.76,153.76,0,0,0-49.45,33.57q-28.15,28.13-43.81,69.61a242.68,242.68,0,0,0-15.67,86.48q0,50.63,16,90.71t45.22,67.85a156.54,156.54,0,0,0,47.51,31.11,147.32,147.32,0,0,0,58.77,11.78,150.07,150.07,0,0,0,58.6-11.43,159.17,159.17,0,0,0,49.45-32.87Q2102.09,602.22,2119,563T2135.88,476Z"/><path class="cls-1" d="M2891.38,698.55l-57.26,11.25-72.58-394.54-.46-.54q-13.74,28.5-60.87,132.29t-91.83,208.28h-48.52q-41.85-96.7-92.49-209.06t-59.44-131l-.71,0q-2.11,9.15-28.51,134.53T2328.37,709.1l-54-9.85q35.16-151.51,65.74-300.23t33.4-161.37l55.9-8.09q3.51,8.1,49.75,113.21T2588,585h2.11q47.8-107.57,101.25-229.21t55.54-126.22l53.09,4.22q1,7.74,29.18,154.16T2891.38,698.55Z"/><path class="cls-1" d="M3304.12,704.88q-3.16,0-46.76-.35t-107.93-.36q-44.66,0-81.74.36t-62.75.35q.7-20.39,1.23-88.25t.53-140.27q0-39.72-.35-105.12t-1.41-135.35q25,0,62.4.35t77.17.36q67.14,0,109.34-.36t45.7-.35v48.87q-3.53,0-44.12-.53t-101.08-.52q-26.35,0-51.68.17t-40.07.18q0,39.72-.71,79.27t-.7,74.71q15.82,0,37.44.18t38.5.17q61.88,0,110.56-.52t51.86-.53v48.51q-2.82,0-58-.52t-100.9-.53q-16.87,0-40.25.17t-39.2.18q0,66.45.35,105.47t.7,65.39q20.75.36,50.28.53t63.63.17q52.38,0,88.07-.35t39.9-.35Z"/><text></text></svg>