<?xml version="1.0" encoding="utf-8"?>
<!-- Generator: Adobe Illustrator 22.1.0, SVG Export Plug-In . SVG Version: 6.00 Build 0)  -->
<svg version="1.1" id="Layer_1" xmlns="http://www.w3.org/2000/svg" xmlns:xlink="http://www.w3.org/1999/xlink" x="0px" y="0px"
	 viewBox="0 0 6386.1 900" style="enable-background:new 0 0 6386.1 900;" xml:space="preserve">
<g>
	<path d="M796.8,415.9H603.6l42.7-44.7c13-13.7,12.5-35.3-1.2-48.3c-13.7-13-35.3-12.5-48.3,1.2l-97.6,102.4
		c-1.1,1.4-2.2,2.9-3.1,4.4c-1.6,2-2.8,4.1-3.8,6.5c-1.2,3.1-1.9,6.3-2,9.6l-0.7,3.1c0.1,4.5,1,8.9,2.7,13c1.7,4.1,4.1,7.8,7.2,10.9
		l102.4,102.4c6.4,6.5,15.1,10.1,24.2,10.1c9.1,0,17.8-3.6,24.2-10.1c6.5-6.4,10.1-15.1,10.1-24.2c0-9.1-3.6-17.8-10.1-24.2
		L606,484.1h190.8c18.9,0,34.1-15.3,34.1-34.1C831,431.1,815.7,415.9,796.8,415.9L796.8,415.9z M796.8,415.9"/>
	<path d="M660.3,108.7C471.8,108.7,319,261.5,319,450c0,188.5,152.8,341.3,341.3,341.3c188.5,0,341.3-152.8,341.3-341.3
		C1001.6,261.5,848.8,108.7,660.3,108.7L660.3,108.7z M660.3,723.1c-150.8,0-273.1-122.3-273.1-273.1
		c0-150.8,122.3-273.1,273.1-273.1c150.8,0,273.1,122.3,273.1,273.1c0,72.4-28.8,141.9-80,193.1
		C802.2,694.3,732.7,723.1,660.3,723.1L660.3,723.1z M660.3,723.1"/>
</g>
<g>
	<g>
		<path d="M1494.8,573c0,24.1-5.7,45.3-17.1,63.5c-11.4,18.2-26.7,32.9-45.9,44.1c-17.6,10.3-37.8,18.1-60.5,23.4s-48,7.9-75.7,7.9
			c-15,0-30.6-0.5-46.6-1.4c-16.1-0.9-25.4-1.5-28-1.8l-2.8-50.6c3.3,0.5,12.4,1.4,27.4,2.6c15,1.3,32.7,1.9,53.1,1.9
			c12.4,0,28.5-1.6,48.2-4.9c19.7-3.3,34.8-7.5,45.4-12.7c13.8-6.8,24.4-15,31.8-24.6c7.4-9.6,11.1-21.8,11.1-36.6
			c0-15.7-3.7-29-11.1-39.9s-19.6-21.4-36.7-31.5c-11-6.6-25.3-13.9-42.9-22.1c-17.6-8.2-33.4-16.6-47.5-25.3
			c-23.9-14.5-41-30.4-51.2-47.6s-15.3-36.4-15.3-57.5c0-21.6,4.6-40.3,13.9-56.1s21.3-29.4,36.1-40.6c15-11.2,33.4-19.7,55.1-25.3
			s45.8-8.4,72.4-8.4c14.6,0,29.3,0.4,44.2,1.2c14.9,0.8,23.4,1.4,25.5,1.6l4.9,51c-2.1-0.2-10.7-1.1-25.7-2.5
			c-15-1.4-33.5-2.1-55.5-2.1c-13.1,0-26.7,1.5-40.6,4.4c-13.9,2.9-26.2,7.4-36.7,13.5c-9.4,5.4-17.3,12.9-23.9,22.5
			c-6.6,9.6-9.8,20.9-9.8,33.8c0,11.5,3.5,22.6,10.4,33.2c6.9,10.7,19.9,21.6,38.8,32.9c9.6,5.9,22.3,12.6,38.1,20.2
			c15.8,7.6,31.3,15.9,46.6,24.8c23.4,13.8,41.1,29.7,52.9,47.6C1488.9,529.6,1494.8,550.1,1494.8,573z"/>
		<path d="M1920.9,704.9c-2.1,0-17.7-0.1-46.8-0.4c-29.1-0.2-65-0.4-107.9-0.4c-29.8,0-57,0.1-81.7,0.4c-24.7,0.2-45.6,0.4-62.8,0.4
			c0.5-13.6,0.9-43,1.2-88.2c0.4-45.2,0.5-92,0.5-140.3c0-26.5-0.1-61.5-0.4-105.1c-0.2-43.6-0.7-88.7-1.4-135.4
			c16.6,0,37.4,0.1,62.4,0.4c25,0.2,50.7,0.4,77.2,0.4c44.8,0,81.2-0.1,109.3-0.4c28.1-0.2,43.4-0.4,45.7-0.4v48.9
			c-2.3,0-17.1-0.2-44.1-0.5s-60.8-0.5-101.1-0.5c-17.6,0-34.8,0.1-51.7,0.2c-16.9,0.1-30.2,0.2-40.1,0.2c0,26.5-0.2,52.9-0.7,79.3
			c-0.5,26.4-0.7,51.3-0.7,74.7c10.5,0,23,0.1,37.4,0.2c14.4,0.1,27.2,0.2,38.5,0.2c41.2,0,78.1-0.2,110.6-0.5
			c32.5-0.4,49.7-0.5,51.9-0.5v48.5c-1.9,0-21.2-0.2-58-0.5c-36.8-0.4-70.4-0.5-100.9-0.5c-11.2,0-24.7,0.1-40.3,0.2
			c-15.6,0.1-28.7,0.2-39.2,0.2c0,44.3,0.1,79.5,0.4,105.5c0.2,26,0.5,47.8,0.7,65.4c13.8,0.2,30.6,0.4,50.3,0.5
			c19.7,0.1,40.9,0.2,63.6,0.2c34.9,0,64.3-0.1,88.1-0.4c23.8-0.2,37.1-0.4,39.9-0.4V704.9z"/>
		<path d="M2355.8,704.9c-2.1,0-17.7-0.1-46.8-0.4c-29.1-0.2-65-0.4-107.9-0.4c-29.8,0-57,0.1-81.7,0.4c-24.7,0.2-45.6,0.4-62.8,0.4
			c0.5-13.6,0.9-43,1.2-88.2c0.4-45.2,0.5-92,0.5-140.3c0-26.5-0.1-61.5-0.4-105.1c-0.2-43.6-0.7-88.7-1.4-135.4
			c16.6,0,37.4,0.1,62.4,0.4c25,0.2,50.7,0.4,77.2,0.4c44.8,0,81.2-0.1,109.3-0.4c28.1-0.2,43.4-0.4,45.7-0.4v48.9
			c-2.3,0-17.1-0.2-44.1-0.5s-60.8-0.5-101.1-0.5c-17.6,0-34.8,0.1-51.7,0.2c-16.9,0.1-30.2,0.2-40.1,0.2c0,26.5-0.2,52.9-0.7,79.3
			c-0.5,26.4-0.7,51.3-0.7,74.7c10.5,0,23,0.1,37.4,0.2c14.4,0.1,27.2,0.2,38.5,0.2c41.2,0,78.1-0.2,110.6-0.5
			c32.5-0.4,49.7-0.5,51.9-0.5v48.5c-1.9,0-21.2-0.2-58-0.5c-36.8-0.4-70.4-0.5-100.9-0.5c-11.2,0-24.7,0.1-40.3,0.2
			c-15.6,0.1-28.7,0.2-39.2,0.2c0,44.3,0.1,79.5,0.4,105.5c0.2,26,0.5,47.8,0.7,65.4c13.8,0.2,30.6,0.4,50.3,0.5
			c19.7,0.1,40.9,0.2,63.6,0.2c34.9,0,64.3-0.1,88.1-0.4c23.8-0.2,37.1-0.4,39.9-0.4V704.9z"/>
		<path d="M2965.7,395.9c0,34.2-11.1,65.2-33.2,92.8c-22.1,27.7-51.7,46.4-88.6,56.2c-15.9,4.2-33.3,7.3-52.1,9.1
			c-18.8,1.9-39.8,2.8-63,2.8l0.7,148.7h-58c0.2-14.1,0.6-40.1,1.1-78.2c0.5-38.1,0.7-97,0.7-176.7c0-25.3-0.1-56.4-0.4-93.2
			c-0.2-36.8-0.7-77.7-1.4-122.7c10.1-0.2,20-0.4,29.7-0.4s17.6,0,23.7,0c40.5,0,75,2.6,103.4,7.7c28.4,5.2,52.4,13.9,71.8,26.4
			c21.3,13.4,37.6,30.8,48.8,52.2S2965.7,367.3,2965.7,395.9z M2906,395.9c0-24.1-5.5-44.7-16.5-61.7c-11-17-27.9-30.4-50.6-40.3
			c-14.1-6.1-29.3-9.9-45.7-11.4c-16.4-1.5-33.3-2.3-50.6-2.3c-2.1,0-4.2,0-6.3,0s-4.3,0-6.7,0c0,2.6-0.2,20.2-0.7,52.7
			c-0.5,32.6-0.7,58.4-0.7,77.3c0,17.3,0.1,37.9,0.2,61.5c0.1,23.7,0.2,37.2,0.2,40.4c2.1,0,4.6,0,7.4,0s5,0,6.7,0
			c15.7,0,32.4-1.1,50.1-3.2c17.7-2.1,32.9-6,45.5-11.6c22-9.4,38.8-22.4,50.4-39C2900.2,441.8,2906,420.9,2906,395.9z"/>
		<path d="M3441.3,677.5l-44,36.2c-5.2-5.4-23.4-25.7-54.8-61c-31.4-35.3-79.7-90.4-145.1-165.2l0.3-3.2c8.9-2.3,20.7-7.4,35.5-15.3
			c14.8-7.9,27.2-16.4,37.3-25.5c8.7-8,16.2-17.8,22.7-29.6c6.4-11.7,9.7-27.4,9.7-47.1c0-18.1-4.7-33.6-14.2-46.6
			c-9.5-13-22.6-22.6-39.2-28.7c-13.6-5.2-27.9-8.3-42.9-9.3c-15-1.1-28.8-1.6-41.5-1.6c-8.4,0-14.9,0.1-19.3,0.2
			c-4.5,0.1-7.7,0.2-9.8,0.2c-0.5,44.6-0.8,83.9-0.9,117.9c-0.1,34-0.2,58.1-0.2,72.1c0,32.1,0.2,75.8,0.5,130.9
			c0.4,55.1,0.6,89.7,0.9,103.8h-58c0.2-14.1,0.6-41.3,1.1-81.7c0.5-40.4,0.7-90.8,0.7-151c0-11.7,0-33.4,0-65s-0.6-89.3-1.8-173
			c2.3,0,14-0.2,35.1-0.7c21.1-0.5,40.5-0.7,58.3-0.7c20.4,0,40.1,1.2,59.3,3.5s37.9,7.4,56.2,15.1c23.2,9.8,41.5,24.3,55.1,43.4
			c13.6,19.1,20.4,41.5,20.4,67.3c0,33.3-10.2,61-30.7,83.1c-20.5,22.1-39.8,38.6-58.1,49.4v1.8c32.1,37.5,67.4,76.3,105.7,116.1
			C3417.9,652.9,3438.5,674.4,3441.3,677.5z"/>
		<path d="M3833.7,704.9c-2.1,0-17.7-0.1-46.8-0.4c-29.1-0.2-65-0.4-107.9-0.4c-29.8,0-57,0.1-81.7,0.4c-24.7,0.2-45.6,0.4-62.8,0.4
			c0.5-13.6,0.9-43,1.2-88.2c0.4-45.2,0.5-92,0.5-140.3c0-26.5-0.1-61.5-0.4-105.1c-0.2-43.6-0.7-88.7-1.4-135.4
			c16.6,0,37.4,0.1,62.4,0.4c25,0.2,50.7,0.4,77.2,0.4c44.8,0,81.2-0.1,109.3-0.4c28.1-0.2,43.4-0.4,45.7-0.4v48.9
			c-2.3,0-17.1-0.2-44.1-0.5s-60.8-0.5-101.1-0.5c-17.6,0-34.8,0.1-51.7,0.2c-16.9,0.1-30.2,0.2-40.1,0.2c0,26.5-0.2,52.9-0.7,79.3
			c-0.5,26.4-0.7,51.3-0.7,74.7c10.5,0,23,0.1,37.4,0.2c14.4,0.1,27.2,0.2,38.5,0.2c41.2,0,78.1-0.2,110.6-0.5
			c32.5-0.4,49.7-0.5,51.9-0.5v48.5c-1.9,0-21.2-0.2-58-0.5c-36.8-0.4-70.4-0.5-100.9-0.5c-11.2,0-24.7,0.1-40.3,0.2
			c-15.6,0.1-28.7,0.2-39.2,0.2c0,44.3,0.1,79.5,0.4,105.5c0.2,26,0.5,47.8,0.7,65.4c13.8,0.2,30.6,0.4,50.3,0.5
			c19.7,0.1,40.9,0.2,63.6,0.2c34.9,0,64.3-0.1,88.1-0.4c23.8-0.2,37.1-0.4,39.9-0.4V704.9z"/>
		<path d="M4359,251.2c-1.2,2.8-26,56.3-74.4,160.4c-48.4,104.1-94.6,204.5-138.7,301.1h-46.8c-48.5-108.3-94.9-210.7-139.2-307
			c-44.3-96.4-67.5-146.9-69.6-151.6l54.8-27.2c1.6,4.7,22.8,53.5,63.5,146.4c40.7,92.9,79.9,180.4,117.6,262.4h0.7
			c38.4-84.1,78.2-172.7,119.5-265.8c41.3-93,62.7-141,64.1-143.8L4359,251.2z"/>
		<path d="M4505.6,705.6h-58c0.2-14.1,0.6-39.1,1.1-75.2c0.5-36.1,0.7-87.9,0.7-155.4c0-26.7-0.1-61.8-0.4-105.1
			c-0.2-43.4-0.7-88.4-1.4-135h58c-0.5,33.5-0.9,72.5-1.2,116.9c-0.4,44.4-0.5,80.7-0.5,108.8c0,71.3,0.2,126.4,0.7,165.4
			C4505,665,4505.3,691.5,4505.6,705.6z"/>
		<path d="M5086.7,470.4c0,38-6.5,72.8-19.5,104.6c-13,31.8-29.9,58-50.8,78.6c-23.2,23-47.8,39.7-73.8,50.1
			c-26,10.4-53.9,15.6-83.6,15.6c-29,0-56.4-5-82.2-14.9s-48.9-24.8-69.6-44.5c-22.7-21.3-41-48.2-55-80.7
			c-13.9-32.5-20.9-69-20.9-109.5c0-36.1,5.5-69,16.5-98.6c11-29.6,27.5-56.3,49.5-80c20.4-22,44.6-39.1,72.7-51.2
			c28.1-12.1,57.7-18.1,88.9-18.1c31.6,0,60.9,5.7,87.8,17.1c26.9,11.4,50.2,27.1,69.9,47.3c23,23.4,40.3,51,52.2,82.8
			C5080.8,400.7,5086.7,434.5,5086.7,470.4z M5026.9,476c0-30.5-5.1-60.4-15.3-89.8c-10.2-29.4-25.8-54.1-46.6-74
			c-14.1-13.6-29.9-24.1-47.3-31.6c-17.5-7.5-37-11.2-58.6-11.2c-21.1,0-40.8,3.8-58.9,11.4c-18.2,7.6-34.7,18.8-49.4,33.6
			c-18.8,18.8-33.4,42-43.8,69.6c-10.4,27.7-15.7,56.5-15.7,86.5c0,33.8,5.3,64,16,90.7c10.7,26.7,25.7,49.3,45.2,67.9
			c13.4,12.9,29.2,23.3,47.5,31.1c18.3,7.9,37.9,11.8,58.8,11.8c20.9,0,40.4-3.8,58.6-11.4c18.2-7.6,34.7-18.6,49.4-32.9
			c17.6-16.9,32-38.4,43.3-64.5C5021.3,536.9,5026.9,507.9,5026.9,476z"/>
		<path d="M5597.9,234.8c0,45-0.2,82.2-0.7,111.6c-0.5,29.4-0.7,55-0.7,76.8c0,26.7,0.1,49.5,0.2,68.4c0.1,18.9,0.2,35.2,0.2,49
			c0,27.2-4,51.2-12.1,71.9s-20.3,38.8-36.7,54.3c-16.4,15.5-36.6,27.6-60.5,36.4s-51.6,13.2-83,13.2c-31.4,0-59.1-4.3-83-13
			s-44.2-20.9-60.8-36.6c-16.4-15.5-28.7-33.6-36.7-54.3s-12.1-44.7-12.1-71.9c0-13.8,0.1-30.2,0.2-49c0.1-18.9,0.2-41.7,0.2-68.4
			c0-21.8-0.2-47.4-0.7-76.8c-0.5-29.4-0.7-66.6-0.7-111.6h58c-0.2,5.9-0.5,25.8-0.9,59.9s-0.5,78.9-0.5,134.5
			c0,16.9,0.1,34.3,0.2,52.4c0.1,18.1,0.2,36.6,0.2,55.5c0,42.9,12.3,75.4,36.9,97.6s57.9,33.2,99.8,33.2
			c45.5,0,79.6-10.5,102.3-31.6c22.7-21.1,34.1-54.1,34.1-99.1c0-19,0.1-37.5,0.2-55.5c0.1-18,0.2-35.5,0.2-52.4
			c0-55.5-0.2-101-0.7-136.4c-0.5-35.4-0.7-54.7-0.7-58H5597.9z"/>
		<path d="M5994.1,573c0,24.1-5.7,45.3-17.1,63.5c-11.4,18.2-26.7,32.9-45.9,44.1c-17.6,10.3-37.8,18.1-60.5,23.4s-48,7.9-75.7,7.9
			c-15,0-30.6-0.5-46.6-1.4c-16.1-0.9-25.4-1.5-28-1.8l-2.8-50.6c3.3,0.5,12.4,1.4,27.4,2.6c15,1.3,32.7,1.9,53.1,1.9
			c12.4,0,28.5-1.6,48.2-4.9c19.7-3.3,34.8-7.5,45.4-12.7c13.8-6.8,24.4-15,31.8-24.6c7.4-9.6,11.1-21.8,11.1-36.6
			c0-15.7-3.7-29-11.1-39.9s-19.6-21.4-36.7-31.5c-11-6.6-25.3-13.9-42.9-22.1c-17.6-8.2-33.4-16.6-47.5-25.3
			c-23.9-14.5-41-30.4-51.2-47.6s-15.3-36.4-15.3-57.5c0-21.6,4.6-40.3,13.9-56.1s21.3-29.4,36.1-40.6c15-11.2,33.4-19.7,55.1-25.3
			s45.8-8.4,72.4-8.4c14.6,0,29.3,0.4,44.2,1.2c14.9,0.8,23.4,1.4,25.5,1.6l4.9,51c-2.1-0.2-10.7-1.1-25.7-2.5
			c-15-1.4-33.5-2.1-55.5-2.1c-13.1,0-26.7,1.5-40.6,4.4c-13.9,2.9-26.2,7.4-36.7,13.5c-9.4,5.4-17.3,12.9-23.9,22.5
			c-6.6,9.6-9.8,20.9-9.8,33.8c0,11.5,3.5,22.6,10.4,33.2c6.9,10.7,19.9,21.6,38.8,32.9c9.6,5.9,22.3,12.6,38.1,20.2
			c15.8,7.6,31.3,15.9,46.6,24.8c23.4,13.8,41.1,29.7,52.9,47.6C5988.2,529.6,5994.1,550.1,5994.1,573z"/>
	</g>
</g>
</svg>
