<?xml version="1.0" encoding="utf-8"?>
<!-- Generator: Adobe Illustrator 22.1.0, SVG Export Plug-In . SVG Version: 6.00 Build 0)  -->
<svg version="1.1" id="Layer_1" xmlns="http://www.w3.org/2000/svg" xmlns:xlink="http://www.w3.org/1999/xlink" x="0px" y="0px"
	 viewBox="0 0 4786.1 900" style="enable-background:new 0 0 4786.1 900;" xml:space="preserve">
<path d="M523.8,415.9c-18.9,0-34.1,15.3-34.1,34.1c0,18.9,15.3,34.1,34.1,34.1h190.8l-44.4,43.7c-6.5,6.4-10.1,15.1-10.1,24.2
	c0,9.1,3.6,17.8,10.1,24.2c6.4,6.5,15.1,10.1,24.2,10.1c9.1,0,17.8-3.6,24.2-10.1l102.4-102.4c3.1-3.1,5.5-6.9,7.2-10.9
	c1.8-4.1,2.7-8.5,2.7-13l-0.7-3.1c-0.2-3.3-0.9-6.5-2-9.6c-0.9-2.3-2.2-4.5-3.8-6.5c-0.9-1.6-1.9-3-3.1-4.4L723.8,324
	c-13-13.7-34.6-14.2-48.3-1.2c-13.7,13-14.2,34.6-1.2,48.3l42.7,44.7H523.8L523.8,415.9z M523.8,415.9"/>
<path d="M660.3,108.7C471.8,108.7,319,261.5,319,450c0,188.5,152.8,341.3,341.3,341.3c188.5,0,341.3-152.8,341.3-341.3
	C1001.6,261.5,848.8,108.7,660.3,108.7L660.3,108.7z M660.3,723.1c-150.8,0-273.1-122.3-273.1-273.1
	c0-150.8,122.3-273.1,273.1-273.1c150.8,0,273.1,122.3,273.1,273.1c0,72.4-28.8,141.9-80,193.1C802.2,694.3,732.7,723.1,660.3,723.1
	L660.3,723.1z M660.3,723.1"/>
<g>
	<g>
		<path d="M1494.8,573c0,24.1-5.7,45.3-17.1,63.5c-11.4,18.2-26.7,32.9-45.9,44.1c-17.6,10.3-37.8,18.1-60.5,23.4s-48,7.9-75.7,7.9
			c-15,0-30.6-0.5-46.6-1.4c-16.1-0.9-25.4-1.5-28-1.8l-2.8-50.6c3.3,0.5,12.4,1.4,27.4,2.6c15,1.3,32.7,1.9,53.1,1.9
			c12.4,0,28.5-1.6,48.2-4.9c19.7-3.3,34.8-7.5,45.4-12.7c13.8-6.8,24.4-15,31.8-24.6c7.4-9.6,11.1-21.8,11.1-36.6
			c0-15.7-3.7-29-11.1-39.9s-19.6-21.4-36.7-31.5c-11-6.6-25.3-13.9-42.9-22.1c-17.6-8.2-33.4-16.6-47.5-25.3
			c-23.9-14.5-41-30.4-51.2-47.6s-15.3-36.4-15.3-57.5c0-21.6,4.6-40.3,13.9-56.1s21.3-29.4,36.1-40.6c15-11.2,33.4-19.7,55.1-25.3
			s45.8-8.4,72.4-8.4c14.6,0,29.3,0.4,44.2,1.2c14.9,0.8,23.4,1.4,25.5,1.6l4.9,51c-2.1-0.2-10.7-1.1-25.7-2.5
			c-15-1.4-33.5-2.1-55.5-2.1c-13.1,0-26.7,1.5-40.6,4.4c-13.9,2.9-26.2,7.4-36.7,13.5c-9.4,5.4-17.3,12.9-23.9,22.5
			c-6.6,9.6-9.8,20.9-9.8,33.8c0,11.5,3.5,22.6,10.4,33.2c6.9,10.7,19.9,21.6,38.8,32.9c9.6,5.9,22.3,12.6,38.1,20.2
			c15.8,7.6,31.3,15.9,46.6,24.8c23.4,13.8,41.1,29.7,52.9,47.6C1488.9,529.6,1494.8,550.1,1494.8,573z"/>
		<path d="M1920.9,704.9c-2.1,0-17.7-0.1-46.8-0.4c-29.1-0.2-65-0.4-107.9-0.4c-29.8,0-57,0.1-81.7,0.4c-24.7,0.2-45.6,0.4-62.8,0.4
			c0.5-13.6,0.9-43,1.2-88.2c0.4-45.2,0.5-92,0.5-140.3c0-26.5-0.1-61.5-0.4-105.1c-0.2-43.6-0.7-88.7-1.4-135.4
			c16.6,0,37.4,0.1,62.4,0.4c25,0.2,50.7,0.4,77.2,0.4c44.8,0,81.2-0.1,109.3-0.4c28.1-0.2,43.4-0.4,45.7-0.4v48.9
			c-2.3,0-17.1-0.2-44.1-0.5s-60.8-0.5-101.1-0.5c-17.6,0-34.8,0.1-51.7,0.2c-16.9,0.1-30.2,0.2-40.1,0.2c0,26.5-0.2,52.9-0.7,79.3
			c-0.5,26.4-0.7,51.3-0.7,74.7c10.5,0,23,0.1,37.4,0.2c14.4,0.1,27.2,0.2,38.5,0.2c41.2,0,78.1-0.2,110.6-0.5
			c32.5-0.4,49.7-0.5,51.9-0.5v48.5c-1.9,0-21.2-0.2-58-0.5c-36.8-0.4-70.4-0.5-100.9-0.5c-11.2,0-24.7,0.1-40.3,0.2
			c-15.6,0.1-28.7,0.2-39.2,0.2c0,44.3,0.1,79.5,0.4,105.5c0.2,26,0.5,47.8,0.7,65.4c13.8,0.2,30.6,0.4,50.3,0.5
			c19.7,0.1,40.9,0.2,63.6,0.2c34.9,0,64.3-0.1,88.1-0.4c23.8-0.2,37.1-0.4,39.9-0.4V704.9z"/>
		<path d="M2355.8,704.9c-2.1,0-17.7-0.1-46.8-0.4c-29.1-0.2-65-0.4-107.9-0.4c-29.8,0-57,0.1-81.7,0.4c-24.7,0.2-45.6,0.4-62.8,0.4
			c0.5-13.6,0.9-43,1.2-88.2c0.4-45.2,0.5-92,0.5-140.3c0-26.5-0.1-61.5-0.4-105.1c-0.2-43.6-0.7-88.7-1.4-135.4
			c16.6,0,37.4,0.1,62.4,0.4c25,0.2,50.7,0.4,77.2,0.4c44.8,0,81.2-0.1,109.3-0.4c28.1-0.2,43.4-0.4,45.7-0.4v48.9
			c-2.3,0-17.1-0.2-44.1-0.5s-60.8-0.5-101.1-0.5c-17.6,0-34.8,0.1-51.7,0.2c-16.9,0.1-30.2,0.2-40.1,0.2c0,26.5-0.2,52.9-0.7,79.3
			c-0.5,26.4-0.7,51.3-0.7,74.7c10.5,0,23,0.1,37.4,0.2c14.4,0.1,27.2,0.2,38.5,0.2c41.2,0,78.1-0.2,110.6-0.5
			c32.5-0.4,49.7-0.5,51.9-0.5v48.5c-1.9,0-21.2-0.2-58-0.5c-36.8-0.4-70.4-0.5-100.9-0.5c-11.2,0-24.7,0.1-40.3,0.2
			c-15.6,0.1-28.7,0.2-39.2,0.2c0,44.3,0.1,79.5,0.4,105.5c0.2,26,0.5,47.8,0.7,65.4c13.8,0.2,30.6,0.4,50.3,0.5
			c19.7,0.1,40.9,0.2,63.6,0.2c34.9,0,64.3-0.1,88.1-0.4c23.8-0.2,37.1-0.4,39.9-0.4V704.9z"/>
		<path d="M3076.5,234.8c-0.5,36.8-0.9,78.9-1.2,126.2c-0.4,47.3-0.5,81.4-0.5,102.3c0,66.6,0.2,119.5,0.7,158.7
			c0.5,39.3,0.7,60.2,0.7,62.8l-46.8,22.9c-70.8-95.6-136.9-181.9-198.5-258.9s-97.1-121.4-106.7-133.4l-0.7,0.4
			c0,62.8,0.4,140,1.2,231.5c0.8,91.5,1.3,144.3,1.6,158.3h-54.8c0.2-5.9,0.6-26.7,1.1-62.6c0.5-35.9,0.7-85.8,0.7-149.8
			c0-25.5-0.1-59.5-0.4-101.8c-0.2-42.3-0.7-87.1-1.4-134.5l53.4-25.3c4.2,5.4,40.1,50.9,107.8,136.7
			c67.6,85.7,131.3,165.4,191.1,238.9l0.7-0.4c0-36.1-0.5-96.8-1.4-182.2c-0.9-85.4-1.4-148.7-1.4-189.9H3076.5z"/>
		<path d="M3539.5,704.9c-2.1,0-17.7-0.1-46.8-0.4c-29.1-0.2-65-0.4-107.9-0.4c-29.8,0-57,0.1-81.7,0.4c-24.7,0.2-45.6,0.4-62.8,0.4
			c0.5-13.6,0.9-43,1.2-88.2c0.4-45.2,0.5-92,0.5-140.3c0-26.5-0.1-61.5-0.4-105.1c-0.2-43.6-0.7-88.7-1.4-135.4
			c16.6,0,37.4,0.1,62.4,0.4c25,0.2,50.7,0.4,77.2,0.4c44.8,0,81.2-0.1,109.3-0.4c28.1-0.2,43.4-0.4,45.7-0.4v48.9
			c-2.3,0-17.1-0.2-44.1-0.5s-60.8-0.5-101.1-0.5c-17.6,0-34.8,0.1-51.7,0.2c-16.9,0.1-30.2,0.2-40.1,0.2c0,26.5-0.2,52.9-0.7,79.3
			c-0.5,26.4-0.7,51.3-0.7,74.7c10.5,0,23,0.1,37.4,0.2c14.4,0.1,27.2,0.2,38.5,0.2c41.2,0,78.1-0.2,110.6-0.5
			c32.5-0.4,49.7-0.5,51.9-0.5v48.5c-1.9,0-21.2-0.2-58-0.5c-36.8-0.4-70.4-0.5-100.9-0.5c-11.2,0-24.7,0.1-40.3,0.2
			c-15.6,0.1-28.7,0.2-39.2,0.2c0,44.3,0.1,79.5,0.4,105.5c0.2,26,0.5,47.8,0.7,65.4c13.8,0.2,30.6,0.4,50.3,0.5
			c19.7,0.1,40.9,0.2,63.6,0.2c34.9,0,64.3-0.1,88.1-0.4c23.8-0.2,37.1-0.4,39.9-0.4V704.9z"/>
		<path d="M4018.7,675.3l-46.2,39c-2.8-4-18-24.3-45.7-60.8c-27.6-36.6-65.1-85.7-112.4-147.3h-0.7c-40.5,50.9-77,97.4-109.4,139.6
			s-49.7,64.8-51.8,67.9l-42.7-35.5c1.6-1.9,15.8-18.9,42.3-51.2c26.6-32.2,69.5-85.4,128.8-159.4v-0.7
			c-28.3-37-61.4-79.6-99.1-127.8c-37.7-48.2-58.3-74.4-61.8-78.6l46.2-34.5c3,4.2,19.1,25.3,48.1,63.3c29,38,63.2,82.5,102.5,133.6
			h0.7c33-42.4,66.1-85.1,99.4-128c33.2-42.9,51-65.9,53.4-68.9l42,30.9c-2.3,3-24.2,30.5-65.5,82.3
			c-41.3,51.8-74.3,92.7-98.9,122.7v0.7c41.7,51.8,80.1,99.5,115.1,143.1C3998,649.3,4016.5,672.5,4018.7,675.3z"/>
		<path d="M4441.9,284.4c-3.8,0-19.5-0.1-47.1-0.4c-27.7-0.2-69.5-0.4-125.5-0.4c-0.5,48.1-0.8,84.6-1.1,109.4
			c-0.2,24.9-0.4,58.8-0.4,101.7c0,41.3,0.2,83.2,0.5,125.8c0.4,42.6,0.6,70.9,0.9,85h-58c0.5-14.1,0.9-42.8,1.2-86.2
			c0.4-43.4,0.5-85.9,0.5-127.4c0-40.8,0-73.2,0-97.3s-0.4-61-1.1-111c-49.9-0.2-90.4-0.2-121.5,0.2c-31.1,0.4-48.1,0.5-51.2,0.5
			v-48.5c24.1,0,53.5,0.1,88.1,0.4c34.6,0.2,71.4,0.4,110.6,0.4c56.7,0,104.1-0.1,142.2-0.4c38.1-0.2,58.7-0.4,61.7-0.4V284.4z"/>
	</g>
</g>
</svg>
